<?xml version="1.0" encoding="UTF-8"?>
<svg id="Layer_1" data-name="Layer 1" xmlns="http://www.w3.org/2000/svg" viewBox="0 0 1131.15 967.22">
  <defs>
    <style>
      .cls-1, .cls-2 {
        fill: #fff;
      }

      .cls-3 {
        fill: none;
      }

      .cls-3, .cls-2 {
        stroke: #231f20;
        stroke-miterlimit: 10;
        stroke-width: 5px;
      }

      .cls-4 {
        font-family: MyriadPro-Regular, 'Myriad Pro';
        font-size: 75px;
      }
    </style>
  </defs>
  <rect class="cls-1" width="1131.15" height="967.22"/>
  <g>
    <line class="cls-3" x1="207.18" y1="482.29" x2="31.83" y2="482.29"/>
    <line class="cls-3" x1="163.35" y1="511.05" x2="75.67" y2="511.05"/>
  </g>
  <circle class="cls-3" cx="1026.32" cy="496.26" r="73"/>
  <polyline class="cls-3" points="453.62 150.87 119.51 150.87 119.51 482.29"/>
  <polyline class="cls-3" points="453.62 842.47 119.51 842.47 119.51 511.05"/>
  <polyline class="cls-3" points="692.2 150.87 1026.32 150.87 1026.32 445.4 1015.4 451.76 1037.23 464.49 1015.4 477.21 1037.23 489.92 1015.4 502.64 1037.23 515.35 1015.4 528.06 1037.23 540.78 1026.32 547.13 1026.32 842.47 692.2 842.47"/>
  <circle class="cls-2" cx="692.2" cy="150.87" r="15.11"/>
  <circle class="cls-2" cx="692.2" cy="842.47" r="15.11"/>
  <line class="cls-3" x1="453.62" y1="842.47" x2="640.89" y2="732.49"/>
  <circle class="cls-2" cx="453.62" cy="842.47" r="15.11"/>
  <line class="cls-3" x1="453.62" y1="150.87" x2="640.89" y2="40.89"/>
  <circle class="cls-2" cx="453.62" cy="150.87" r="15.11"/>
  <text class="cls-4" transform="translate(549.96 215.98)"><tspan x="0" y="0">A</tspan></text>
  <text class="cls-4" transform="translate(552.59 907.58)"><tspan x="0" y="0">B</tspan></text>
</svg>