<?xml version="1.0" encoding="utf-8"?>
<!-- Generator: Adobe Illustrator 26.1.0, SVG Export Plug-In . SVG Version: 6.00 Build 0)  -->
<svg version="1.1" id="Layer_1" xmlns="http://www.w3.org/2000/svg" xmlns:xlink="http://www.w3.org/1999/xlink" x="0px" y="0px"
	 viewBox="0 0 425.28 198.36" style="enable-background:new 0 0 425.28 198.36;" xml:space="preserve">
<style type="text/css">
	.st0{fill:#FFFFFF;}
	.st1{fill:none;stroke:#4472C4;stroke-width:0.48;stroke-miterlimit:8;stroke-dasharray:1.92,1.44;}
	.st2{fill:none;stroke:#4472C4;stroke-miterlimit:8;}
	.st3{fill-rule:evenodd;clip-rule:evenodd;fill:#4472C4;}
	.st4{fill:#4472C4;}
	.st5{font-family:'CambriaMath';}
	.st6{font-size:8.04px;}
	.st7{fill:none;stroke:#FF0000;stroke-width:0.48;stroke-miterlimit:8;stroke-dasharray:1.92,1.44;}
	.st8{fill:none;stroke:#FF0000;stroke-miterlimit:8;}
	.st9{fill-rule:evenodd;clip-rule:evenodd;fill:#FF0000;}
	.st10{fill:#FF0000;}
	.st11{fill:none;stroke:#000000;stroke-width:0.75;stroke-miterlimit:8;}
	.st12{clip-path:url(#SVGID_00000160151905862947144510000001226757963873834174_);fill-rule:evenodd;clip-rule:evenodd;}
	
		.st13{clip-path:url(#SVGID_00000160151905862947144510000001226757963873834174_);fill:none;stroke:#000000;stroke-width:0.96;stroke-miterlimit:8;}
	.st14{clip-path:url(#SVGID_00000171000588059790221560000001372525128267127428_);fill-rule:evenodd;clip-rule:evenodd;}
	
		.st15{clip-path:url(#SVGID_00000171000588059790221560000001372525128267127428_);fill:none;stroke:#000000;stroke-width:0.96;stroke-miterlimit:8;}
	.st16{clip-path:url(#SVGID_00000085230927415658248340000010602195392311870602_);fill-rule:evenodd;clip-rule:evenodd;}
	
		.st17{clip-path:url(#SVGID_00000085230927415658248340000010602195392311870602_);fill:none;stroke:#000000;stroke-width:0.96;stroke-miterlimit:8;}
	.st18{clip-path:url(#SVGID_00000084498671872076816980000012464044682803454397_);fill-rule:evenodd;clip-rule:evenodd;}
	
		.st19{clip-path:url(#SVGID_00000084498671872076816980000012464044682803454397_);fill:none;stroke:#000000;stroke-width:0.96;stroke-miterlimit:8;}
	.st20{clip-path:url(#SVGID_00000034774324729430139760000014024675200287182987_);fill-rule:evenodd;clip-rule:evenodd;}
	
		.st21{clip-path:url(#SVGID_00000034774324729430139760000014024675200287182987_);fill:none;stroke:#000000;stroke-width:0.96;stroke-miterlimit:8;}
	.st22{clip-path:url(#SVGID_00000079467719893094830260000008289309547933983675_);fill-rule:evenodd;clip-rule:evenodd;}
	
		.st23{clip-path:url(#SVGID_00000079467719893094830260000008289309547933983675_);fill:none;stroke:#000000;stroke-width:0.96;stroke-miterlimit:8;}
	.st24{fill:none;stroke:#000000;stroke-width:0.72;stroke-miterlimit:8;}
	.st25{clip-path:url(#SVGID_00000028298297635176643850000000801048134654540968_);fill-rule:evenodd;clip-rule:evenodd;}
	
		.st26{clip-path:url(#SVGID_00000028298297635176643850000000801048134654540968_);fill:none;stroke:#000000;stroke-width:0.96;stroke-miterlimit:8;}
	.st27{clip-path:url(#SVGID_00000066481323599847648930000014550310277788467855_);fill-rule:evenodd;clip-rule:evenodd;}
	
		.st28{clip-path:url(#SVGID_00000066481323599847648930000014550310277788467855_);fill:none;stroke:#000000;stroke-width:0.96;stroke-miterlimit:8;}
	.st29{clip-path:url(#SVGID_00000085947818649357491260000015151184106939739527_);fill-rule:evenodd;clip-rule:evenodd;}
	
		.st30{clip-path:url(#SVGID_00000085947818649357491260000015151184106939739527_);fill:none;stroke:#000000;stroke-width:0.96;stroke-miterlimit:8;}
	.st31{clip-path:url(#SVGID_00000140714316117023162570000001482374154313318548_);fill-rule:evenodd;clip-rule:evenodd;}
	
		.st32{clip-path:url(#SVGID_00000140714316117023162570000001482374154313318548_);fill:none;stroke:#000000;stroke-width:0.96;stroke-miterlimit:8;}
	.st33{font-family:'Calibri';}
	.st34{font-size:18px;}
</style>
<rect class="st0" width="425.28" height="198.36"/>
<line class="st1" x1="47.64" y1="145.32" x2="47.99" y2="170.96"/>
<line class="st1" x1="161.16" y1="152.76" x2="161.63" y2="170.91"/>
<line class="st2" x1="54.32" y1="165.96" x2="156.33" y2="165.96"/>
<polygon class="st3" points="155.34,162.96 161.34,165.96 155.34,168.96 "/>
<polygon class="st3" points="55.32,168.96 49.32,165.96 55.32,162.96 "/>
<path class="st4" d="M371.29,160.48c-0.35,0.5-0.67,0.87-0.98,1.11c-0.31,0.23-0.64,0.35-0.98,0.35c-0.4,0-0.7-0.15-0.92-0.45
	c-0.22-0.3-0.33-0.72-0.33-1.26c0-0.62,0.12-1.21,0.36-1.78c0.24-0.57,0.58-1.02,1-1.35c0.42-0.33,0.9-0.49,1.42-0.49
	c0.22,0,0.42,0.02,0.61,0.07c0.19,0.04,0.37,0.12,0.57,0.23l0.28-1.25c0.03-0.12,0.05-0.25,0.08-0.39c0.02-0.14,0.03-0.27,0.03-0.38
	c0-0.11-0.02-0.19-0.06-0.25c-0.04-0.06-0.1-0.1-0.17-0.12c-0.07-0.03-0.21-0.04-0.4-0.05l0.06-0.28l1.35-0.05h0.32l-1.34,5.97
	c-0.08,0.35-0.12,0.62-0.12,0.8c0,0.14,0.02,0.25,0.07,0.31c0.05,0.06,0.12,0.1,0.22,0.1c0.11,0,0.22-0.04,0.35-0.13
	c0.12-0.09,0.29-0.26,0.52-0.5l0.31,0.3c-0.33,0.35-0.61,0.59-0.84,0.74s-0.47,0.22-0.73,0.22c-0.22,0-0.4-0.07-0.53-0.22
	c-0.13-0.15-0.2-0.34-0.2-0.59c0-0.2,0.04-0.41,0.12-0.63L371.29,160.48z M371.65,158.57c0.05-0.26,0.08-0.5,0.08-0.73
	c0-0.28-0.06-0.48-0.18-0.61c-0.12-0.13-0.32-0.19-0.59-0.19c-0.37,0-0.7,0.15-0.99,0.44c-0.29,0.3-0.52,0.7-0.69,1.2
	c-0.17,0.5-0.25,1-0.25,1.5c0,0.37,0.05,0.65,0.15,0.84c0.1,0.19,0.27,0.28,0.51,0.28c0.11,0,0.22-0.02,0.34-0.07
	c0.11-0.05,0.23-0.13,0.36-0.23c0.12-0.11,0.25-0.24,0.37-0.39c0.12-0.15,0.23-0.31,0.33-0.47c0.1-0.16,0.19-0.34,0.28-0.56
	c0.09-0.21,0.16-0.47,0.22-0.77L371.65,158.57z"/>
<text transform="matrix(1 0 0 1 373.6367 164.1315)" class="st4 st5 st6">1</text>
<line class="st1" x1="347.76" y1="142.68" x2="347.76" y2="172.08"/>
<line class="st1" x1="410.28" y1="115.92" x2="410.28" y2="172.61"/>
<line class="st2" x1="353.72" y1="166.44" x2="405.22" y2="166.44"/>
<polygon class="st3" points="404.22,163.44 410.22,166.44 404.22,169.44 "/>
<polygon class="st3" points="354.72,169.44 348.72,166.44 354.72,163.44 "/>
<line class="st7" x1="348.32" y1="149.52" x2="247.08" y2="149.52"/>
<line class="st7" x1="283.36" y1="45.36" x2="240.84" y2="45.36"/>
<line class="st8" x1="267.84" y1="144.08" x2="267.84" y2="50.96"/>
<polygon class="st9" points="270.84,51.96 267.84,45.96 264.84,51.96 "/>
<polygon class="st9" points="264.84,143.08 267.84,149.08 270.84,143.08 "/>
<path class="st10" d="M258.05,99.23c-0.35,0.5-0.67,0.87-0.98,1.11c-0.31,0.23-0.64,0.35-0.98,0.35c-0.4,0-0.7-0.15-0.92-0.45
	c-0.22-0.3-0.33-0.72-0.33-1.26c0-0.62,0.12-1.21,0.36-1.78c0.24-0.57,0.58-1.02,1-1.35c0.42-0.33,0.9-0.49,1.42-0.49
	c0.22,0,0.42,0.02,0.61,0.07c0.19,0.04,0.37,0.12,0.57,0.23l0.28-1.25c0.03-0.12,0.05-0.25,0.08-0.39c0.02-0.14,0.03-0.27,0.03-0.38
	s-0.02-0.19-0.06-0.25c-0.04-0.06-0.1-0.1-0.17-0.12c-0.07-0.03-0.21-0.04-0.4-0.05l0.06-0.28l1.35-0.05h0.32l-1.34,5.97
	c-0.08,0.35-0.12,0.62-0.12,0.8c0,0.14,0.02,0.25,0.07,0.31c0.05,0.06,0.12,0.1,0.22,0.1c0.11,0,0.22-0.04,0.35-0.13
	c0.12-0.09,0.29-0.26,0.52-0.5l0.31,0.3c-0.33,0.35-0.61,0.59-0.84,0.74c-0.23,0.14-0.47,0.22-0.73,0.22c-0.22,0-0.4-0.07-0.53-0.22
	c-0.13-0.15-0.2-0.34-0.2-0.59c0-0.2,0.04-0.41,0.12-0.63L258.05,99.23z M258.41,97.32c0.05-0.26,0.08-0.5,0.08-0.73
	c0-0.28-0.06-0.48-0.18-0.61c-0.12-0.13-0.32-0.19-0.59-0.19c-0.37,0-0.7,0.15-0.99,0.44c-0.29,0.3-0.52,0.7-0.69,1.2
	c-0.17,0.5-0.25,1-0.25,1.5c0,0.37,0.05,0.65,0.15,0.84c0.1,0.19,0.27,0.28,0.51,0.28c0.11,0,0.22-0.02,0.34-0.07
	c0.11-0.05,0.23-0.13,0.36-0.23c0.12-0.11,0.25-0.24,0.37-0.39c0.12-0.15,0.23-0.31,0.33-0.47c0.1-0.16,0.19-0.34,0.28-0.56
	c0.09-0.21,0.16-0.47,0.22-0.77L258.41,97.32z"/>
<text transform="matrix(1 0 0 1 260.6357 102.8844)" class="st10 st5 st6">2</text>
<polygon class="st11" points="287.01,44.96 347.75,9.66 409.93,45.56 409.73,115.81 348.99,151.12 286.8,115.22 "/>
<g>
	<defs>
		<rect id="SVGID_1_" width="425.28" height="198.36"/>
	</defs>
	<clipPath id="SVGID_00000157297819933440773280000017240576767519661759_">
		<use xlink:href="#SVGID_1_"  style="overflow:visible;"/>
	</clipPath>
	
		<path style="clip-path:url(#SVGID_00000157297819933440773280000017240576767519661759_);fill-rule:evenodd;clip-rule:evenodd;" d="
		M341.28,10.08c0-3.11,2.52-5.64,5.64-5.64s5.64,2.53,5.64,5.64c0,3.12-2.53,5.64-5.64,5.64S341.28,13.2,341.28,10.08"/>
	
		<circle style="clip-path:url(#SVGID_00000157297819933440773280000017240576767519661759_);fill:none;stroke:#000000;stroke-width:0.96;stroke-miterlimit:8;" cx="346.92" cy="10.08" r="5.64"/>
</g>
<g>
	<defs>
		<rect id="SVGID_00000124857016556080054530000017908614286991850923_" width="425.28" height="198.36"/>
	</defs>
	<clipPath id="SVGID_00000118389194182262602650000018432924709438346673_">
		<use xlink:href="#SVGID_00000124857016556080054530000017908614286991850923_"  style="overflow:visible;"/>
	</clipPath>
	
		<path style="clip-path:url(#SVGID_00000118389194182262602650000018432924709438346673_);fill-rule:evenodd;clip-rule:evenodd;" d="
		M341.28,148.8c0-3.12,2.52-5.64,5.64-5.64s5.64,2.52,5.64,5.64s-2.53,5.64-5.64,5.64S341.28,151.92,341.28,148.8"/>
	
		<circle style="clip-path:url(#SVGID_00000118389194182262602650000018432924709438346673_);fill:none;stroke:#000000;stroke-width:0.96;stroke-miterlimit:8;" cx="346.92" cy="148.8" r="5.64"/>
</g>
<g>
	<defs>
		<rect id="SVGID_00000129884285155747399390000013865470334733983155_" width="425.28" height="198.36"/>
	</defs>
	<clipPath id="SVGID_00000109710589720392309280000002444175458037474957_">
		<use xlink:href="#SVGID_00000129884285155747399390000013865470334733983155_"  style="overflow:visible;"/>
	</clipPath>
	
		<path style="clip-path:url(#SVGID_00000109710589720392309280000002444175458037474957_);fill-rule:evenodd;clip-rule:evenodd;" d="
		M402.72,115.8c0-3.11,2.55-5.64,5.7-5.64s5.7,2.53,5.7,5.64c0,3.12-2.55,5.64-5.7,5.64S402.72,118.92,402.72,115.8"/>
	
		<ellipse style="clip-path:url(#SVGID_00000109710589720392309280000002444175458037474957_);fill:none;stroke:#000000;stroke-width:0.96;stroke-miterlimit:8;" cx="408.42" cy="115.8" rx="5.7" ry="5.64"/>
</g>
<g>
	<defs>
		<rect id="SVGID_00000053531030561720567930000001956804480819084178_" width="425.28" height="198.36"/>
	</defs>
	<clipPath id="SVGID_00000084525937000984850220000015329244057480946877_">
		<use xlink:href="#SVGID_00000053531030561720567930000001956804480819084178_"  style="overflow:visible;"/>
	</clipPath>
	
		<path style="clip-path:url(#SVGID_00000084525937000984850220000015329244057480946877_);fill-rule:evenodd;clip-rule:evenodd;" d="
		M403.44,45.36c0-3.11,2.55-5.64,5.7-5.64s5.7,2.53,5.7,5.64c0,3.12-2.55,5.64-5.7,5.64S403.44,48.48,403.44,45.36"/>
	
		<ellipse style="clip-path:url(#SVGID_00000084525937000984850220000015329244057480946877_);fill:none;stroke:#000000;stroke-width:0.96;stroke-miterlimit:8;" cx="409.14" cy="45.36" rx="5.7" ry="5.64"/>
</g>
<g>
	<defs>
		<rect id="SVGID_00000135677301255735434610000007716534782295831943_" width="425.28" height="198.36"/>
	</defs>
	<clipPath id="SVGID_00000026871203966041754010000016143600154868306831_">
		<use xlink:href="#SVGID_00000135677301255735434610000007716534782295831943_"  style="overflow:visible;"/>
	</clipPath>
	
		<path style="clip-path:url(#SVGID_00000026871203966041754010000016143600154868306831_);fill-rule:evenodd;clip-rule:evenodd;" d="
		M279,115.8c0-3.11,2.55-5.64,5.7-5.64s5.7,2.53,5.7,5.64c0,3.12-2.55,5.64-5.7,5.64S279,118.92,279,115.8"/>
	
		<ellipse style="clip-path:url(#SVGID_00000026871203966041754010000016143600154868306831_);fill:none;stroke:#000000;stroke-width:0.96;stroke-miterlimit:8;" cx="284.7" cy="115.8" rx="5.7" ry="5.64"/>
</g>
<g>
	<defs>
		<rect id="SVGID_00000062182096330892087010000005421465919225408131_" width="425.28" height="198.36"/>
	</defs>
	<clipPath id="SVGID_00000020385142956177135220000015509765671930824106_">
		<use xlink:href="#SVGID_00000062182096330892087010000005421465919225408131_"  style="overflow:visible;"/>
	</clipPath>
	
		<path style="clip-path:url(#SVGID_00000020385142956177135220000015509765671930824106_);fill-rule:evenodd;clip-rule:evenodd;" d="
		M279.72,45.36c0-3.11,2.55-5.64,5.7-5.64s5.7,2.53,5.7,5.64c0,3.12-2.55,5.64-5.7,5.64S279.72,48.48,279.72,45.36"/>
	
		<ellipse style="clip-path:url(#SVGID_00000020385142956177135220000015509765671930824106_);fill:none;stroke:#000000;stroke-width:0.96;stroke-miterlimit:8;" cx="285.42" cy="45.36" rx="5.7" ry="5.64"/>
</g>
<rect x="48" y="36" class="st24" width="113.4" height="113.28"/>
<g>
	<defs>
		<rect id="SVGID_00000139267073212319538960000016594483529475929995_" width="425.28" height="198.36"/>
	</defs>
	<clipPath id="SVGID_00000070097559125156200880000010873717464924261519_">
		<use xlink:href="#SVGID_00000139267073212319538960000016594483529475929995_"  style="overflow:visible;"/>
	</clipPath>
	
		<path style="clip-path:url(#SVGID_00000070097559125156200880000010873717464924261519_);fill-rule:evenodd;clip-rule:evenodd;" d="
		M42,36.36c0-3.11,2.55-5.64,5.7-5.64c3.15,0,5.7,2.53,5.7,5.64c0,3.12-2.55,5.64-5.7,5.64C44.55,42,42,39.48,42,36.36"/>
	
		<ellipse style="clip-path:url(#SVGID_00000070097559125156200880000010873717464924261519_);fill:none;stroke:#000000;stroke-width:0.96;stroke-miterlimit:8;" cx="47.7" cy="36.36" rx="5.7" ry="5.64"/>
</g>
<g>
	<defs>
		<rect id="SVGID_00000171698239599079710900000008470073861431134365_" width="425.28" height="198.36"/>
	</defs>
	<clipPath id="SVGID_00000075161390725932332530000016611810261598433688_">
		<use xlink:href="#SVGID_00000171698239599079710900000008470073861431134365_"  style="overflow:visible;"/>
	</clipPath>
	
		<path style="clip-path:url(#SVGID_00000075161390725932332530000016611810261598433688_);fill-rule:evenodd;clip-rule:evenodd;" d="
		M155.28,36.36c0-3.11,2.52-5.64,5.64-5.64c3.11,0,5.64,2.53,5.64,5.64c0,3.12-2.53,5.64-5.64,5.64
		C157.8,42,155.28,39.48,155.28,36.36"/>
	
		<circle style="clip-path:url(#SVGID_00000075161390725932332530000016611810261598433688_);fill:none;stroke:#000000;stroke-width:0.96;stroke-miterlimit:8;" cx="160.92" cy="36.36" r="5.64"/>
</g>
<g>
	<defs>
		<rect id="SVGID_00000101802294619998391620000007503747867099134367_" width="425.28" height="198.36"/>
	</defs>
	<clipPath id="SVGID_00000132062751353716668600000014377658890511235763_">
		<use xlink:href="#SVGID_00000101802294619998391620000007503747867099134367_"  style="overflow:visible;"/>
	</clipPath>
	
		<path style="clip-path:url(#SVGID_00000132062751353716668600000014377658890511235763_);fill-rule:evenodd;clip-rule:evenodd;" d="
		M42,148.8c0-3.12,2.52-5.64,5.64-5.64c3.11,0,5.64,2.52,5.64,5.64s-2.53,5.64-5.64,5.64C44.52,154.44,42,151.92,42,148.8"/>
	
		<circle style="clip-path:url(#SVGID_00000132062751353716668600000014377658890511235763_);fill:none;stroke:#000000;stroke-width:0.96;stroke-miterlimit:8;" cx="47.64" cy="148.8" r="5.64"/>
</g>
<g>
	<defs>
		<rect id="SVGID_00000037689202879949577000000010973369136898682806_" width="425.28" height="198.36"/>
	</defs>
	<clipPath id="SVGID_00000120541541832665185890000012268496258723540631_">
		<use xlink:href="#SVGID_00000037689202879949577000000010973369136898682806_"  style="overflow:visible;"/>
	</clipPath>
	
		<path style="clip-path:url(#SVGID_00000120541541832665185890000012268496258723540631_);fill-rule:evenodd;clip-rule:evenodd;" d="
		M155.28,148.8c0-3.12,2.52-5.64,5.64-5.64c3.11,0,5.64,2.52,5.64,5.64s-2.53,5.64-5.64,5.64
		C157.8,154.44,155.28,151.92,155.28,148.8"/>
	
		<circle style="clip-path:url(#SVGID_00000120541541832665185890000012268496258723540631_);fill:none;stroke:#000000;stroke-width:0.96;stroke-miterlimit:8;" cx="160.92" cy="148.8" r="5.64"/>
</g>
<line class="st8" x1="153.38" y1="141.34" x2="55.27" y2="43.84"/>
<polygon class="st9" points="53.86,46.68 51.72,40.32 58.09,42.42 "/>
<polygon class="st9" points="154.78,138.51 156.92,144.86 150.55,142.76 "/>
<path class="st10" d="M97.35,118.01c-0.35,0.5-0.67,0.87-0.98,1.11c-0.31,0.23-0.64,0.35-0.98,0.35c-0.4,0-0.7-0.15-0.92-0.45
	c-0.22-0.3-0.33-0.72-0.33-1.26c0-0.62,0.12-1.21,0.36-1.78c0.24-0.57,0.58-1.02,1-1.35c0.42-0.33,0.9-0.49,1.42-0.49
	c0.22,0,0.42,0.02,0.61,0.07c0.19,0.04,0.37,0.12,0.57,0.23l0.28-1.25c0.03-0.12,0.05-0.25,0.08-0.39c0.02-0.14,0.03-0.27,0.03-0.38
	s-0.02-0.19-0.06-0.25c-0.04-0.06-0.1-0.1-0.17-0.12c-0.07-0.03-0.21-0.04-0.4-0.05l0.06-0.28l1.35-0.05h0.32l-1.34,5.97
	c-0.08,0.35-0.12,0.62-0.12,0.8c0,0.14,0.02,0.25,0.07,0.31c0.05,0.06,0.12,0.1,0.22,0.1c0.11,0,0.22-0.04,0.35-0.13
	c0.12-0.09,0.29-0.26,0.52-0.5l0.31,0.3c-0.33,0.35-0.61,0.59-0.84,0.74c-0.23,0.14-0.47,0.22-0.73,0.22c-0.22,0-0.4-0.07-0.53-0.22
	c-0.13-0.15-0.2-0.34-0.2-0.59c0-0.2,0.04-0.41,0.12-0.63L97.35,118.01z M97.71,116.1c0.05-0.26,0.08-0.5,0.08-0.73
	c0-0.28-0.06-0.48-0.18-0.61c-0.12-0.13-0.32-0.19-0.59-0.19c-0.37,0-0.7,0.15-0.99,0.44c-0.29,0.3-0.52,0.7-0.69,1.2
	c-0.17,0.5-0.25,1-0.25,1.5c0,0.37,0.05,0.65,0.15,0.84c0.1,0.19,0.27,0.28,0.51,0.28c0.11,0,0.22-0.02,0.34-0.07
	c0.11-0.05,0.23-0.13,0.36-0.23c0.12-0.11,0.25-0.24,0.37-0.39c0.12-0.15,0.23-0.31,0.33-0.47c0.1-0.16,0.19-0.34,0.28-0.56
	c0.09-0.21,0.16-0.47,0.22-0.77L97.71,116.1z"/>
<text transform="matrix(1 0 0 1 99.9336 121.6637)" class="st10 st5 st6">2</text>
<path class="st4" d="M102.44,159.78c-0.35,0.5-0.67,0.87-0.98,1.11c-0.31,0.23-0.64,0.35-0.98,0.35c-0.4,0-0.7-0.15-0.92-0.45
	c-0.22-0.3-0.33-0.72-0.33-1.26c0-0.62,0.12-1.21,0.36-1.78c0.24-0.57,0.58-1.02,1-1.35c0.42-0.33,0.9-0.49,1.42-0.49
	c0.22,0,0.42,0.02,0.61,0.07c0.19,0.04,0.37,0.12,0.57,0.23l0.28-1.25c0.03-0.12,0.05-0.25,0.08-0.39c0.02-0.14,0.03-0.27,0.03-0.38
	c0-0.11-0.02-0.19-0.06-0.25c-0.04-0.06-0.1-0.1-0.17-0.12c-0.07-0.03-0.21-0.04-0.4-0.05l0.06-0.28l1.35-0.05h0.32l-1.34,5.97
	c-0.08,0.35-0.12,0.62-0.12,0.8c0,0.14,0.02,0.25,0.07,0.31c0.05,0.06,0.12,0.1,0.22,0.1c0.11,0,0.22-0.04,0.35-0.13
	c0.12-0.09,0.29-0.26,0.52-0.5l0.31,0.3c-0.33,0.35-0.61,0.59-0.84,0.74c-0.23,0.14-0.47,0.22-0.73,0.22c-0.22,0-0.4-0.07-0.53-0.22
	c-0.13-0.15-0.2-0.34-0.2-0.59c0-0.2,0.04-0.41,0.12-0.63L102.44,159.78z M102.8,157.87c0.05-0.26,0.08-0.5,0.08-0.73
	c0-0.28-0.06-0.48-0.18-0.61c-0.12-0.13-0.32-0.19-0.59-0.19c-0.37,0-0.7,0.15-0.99,0.44c-0.29,0.3-0.52,0.7-0.69,1.2
	c-0.17,0.5-0.25,1-0.25,1.5c0,0.37,0.05,0.65,0.15,0.84c0.1,0.19,0.27,0.28,0.51,0.28c0.11,0,0.22-0.02,0.34-0.07
	c0.11-0.05,0.23-0.13,0.36-0.23c0.12-0.11,0.25-0.24,0.37-0.39c0.12-0.15,0.23-0.31,0.33-0.47c0.1-0.16,0.19-0.34,0.28-0.56
	c0.09-0.21,0.16-0.47,0.22-0.77L102.8,157.87z"/>
<text transform="matrix(1 0 0 1 104.7871 163.4342)" class="st4 st5 st6">1</text>
<text transform="matrix(1 0 0 1 82.6274 189.4284)"><tspan x="0" y="0" class="st33 st34">c</tspan><tspan x="7.58" y="0" class="st33 st34">ub</tspan><tspan x="26.53" y="0" class="st33 st34">i</tspan><tspan x="30.62" y="0" class="st33 st34">c</tspan></text>
<text transform="matrix(1 0 0 1 314.8818 189.8961)"><tspan x="0" y="0" class="st33 st34">h</tspan><tspan x="9.47" y="0" class="st33 st34">e</tspan><tspan x="18.25" y="0" class="st33 st34">x</tspan><tspan x="25.71" y="0" class="st33 st34">a</tspan><tspan x="34.34" y="0" class="st33 st34">g</tspan><tspan x="42.75" y="0" class="st33 st34">o</tspan><tspan x="52.24" y="0" class="st33 st34">na</tspan><tspan x="70.35" y="0" class="st33 st34">l</tspan></text>
</svg>
