<?xml version="1.0" encoding="UTF-8"?>
<svg id="Layer_1" data-name="Layer 1" xmlns="http://www.w3.org/2000/svg" viewBox="0 0 988.65 888.28">
  <defs>
    <style>
      .cls-1 {
        letter-spacing: -.04em;
      }

      .cls-2 {
        fill: none;
        stroke: #231f20;
        stroke-width: 7.25px;
      }

      .cls-2, .cls-3 {
        stroke-miterlimit: 10;
      }

      .cls-3 {
        fill: #fff;
        stroke: #000;
      }

      .cls-4 {
        font-family: MyriadPro-Regular, 'Myriad Pro';
        font-size: 65.29px;
      }

      .cls-4, .cls-5 {
        fill: #231f20;
      }
    </style>
  </defs>
  <rect class="cls-3" x=".5" y=".5" width="987.65" height="887.28"/>
  <g>
    <g>
      <line class="cls-2" x1="685.36" y1="799.49" x2="798.95" y2="799.49"/>
      <line class="cls-2" x1="705.29" y1="827.67" x2="779.02" y2="827.67"/>
      <line class="cls-2" x1="731.41" y1="855.84" x2="752.9" y2="855.84"/>
    </g>
    <polyline class="cls-2" points="742.16 298.61 742.16 234.78 753.84 227.98 730.47 214.36 753.84 200.75 730.47 187.14 753.84 173.52 730.47 159.91 753.84 146.29 730.47 132.66 742.16 125.85 742.16 12.13"/>
    <text class="cls-4" transform="translate(795.56 752.64)"><tspan x="0" y="0">2N222</tspan></text>
    <text class="cls-4" transform="translate(596.98 61.87)"><tspan x="0" y="0">+9</tspan><tspan class="cls-1" x="72.41" y="0"> </tspan><tspan x="83.9" y="0">V</tspan></text>
    <circle class="cls-2" cx="714.66" cy="612.04" r="99.34"/>
    <line class="cls-2" x1="680.17" y1="552.92" x2="680.17" y2="675.76"/>
    <polyline class="cls-2" points="742.15 428.85 742.15 536.63 742.16 537.28 679.05 599.07"/>
    <polyline class="cls-2" points="742.15 798.96 742.15 691.18 742.16 690.52 679.05 628.74"/>
    <g>
      <line class="cls-2" x1="680.17" y1="631.42" x2="719.51" y2="669"/>
      <polygon class="cls-5" points="699.93 680.31 742.1 690.58 729.92 648.92 699.93 680.31"/>
    </g>
    <rect class="cls-2" x="14.7" y="409.01" width="290.89" height="115.45"/>
    <text class="cls-4" transform="translate(91.39 487.37)"><tspan x="0" y="0">GPIO</tspan></text>
    <polyline class="cls-2" points="160.14 524.46 160.14 614.32 330.03 614.32 336.83 626.01 350.45 602.63 364.06 626.01 377.67 602.63 391.29 626.01 404.9 602.63 418.52 626.01 432.15 602.63 438.96 614.32 552.68 614.32 557.06 614.32 680.02 614.32"/>
    <g>
      <polygon class="cls-2" points="779.27 298.61 705.04 298.61 742.16 352.66 779.27 298.61"/>
      <line class="cls-2" x1="705.04" y1="355.41" x2="779.27" y2="355.41"/>
    </g>
    <line class="cls-2" x1="742.16" y1="352.66" x2="742.16" y2="488.85"/>
  </g>
</svg>