<?xml version="1.0" encoding="UTF-8"?>
<svg id="Layer_1" data-name="Layer 1" xmlns="http://www.w3.org/2000/svg" viewBox="0 0 180.24 157.26">
  <defs>
    <style>
      .cls-1 {
        fill: #fff;
      }

      .cls-2 {
        font-family: MyriadPro-Regular, 'Myriad Pro';
        font-size: 12px;
      }

      .cls-2, .cls-3 {
        fill: #231f20;
      }

      .cls-4 {
        letter-spacing: 0em;
      }

      .cls-5 {
        letter-spacing: 0em;
      }

      .cls-6 {
        fill: none;
        stroke: #231f20;
        stroke-miterlimit: 10;
        stroke-width: 2px;
      }

      .cls-7 {
        letter-spacing: 0em;
      }

      .cls-8 {
        letter-spacing: .03em;
      }

      .cls-9 {
        letter-spacing: 0em;
      }
    </style>
  </defs>
  <rect class="cls-1" width="180.24" height="157.26"/>
  <g>
    <g>
      <line class="cls-6" x1="93.34" y1="46.83" x2="93.34" y2="7.53"/>
      <line class="cls-6" x1="86.9" y1="37" x2="86.9" y2="17.35"/>
    </g>
    <polyline class="cls-6" points="93.34 27.18 167.62 27.18 167.62 139.18 136.27 139.18 134.39 135.95 130.64 142.4 126.88 135.95 123.13 142.4 119.37 135.95 115.62 142.4 111.87 135.95 108.12 142.4 106.24 139.18 59.91 139.18"/>
    <g>
      <polygon class="cls-6" points="59.91 149.74 59.91 128.62 44.54 139.18 59.91 149.74"/>
      <line class="cls-6" x1="43.76" y1="128.62" x2="43.76" y2="149.74"/>
    </g>
    <polyline class="cls-6" points="44.54 139.18 12.62 139.18 12.62 27.18 86.9 27.18"/>
    <g>
      <line class="cls-6" x1="167.62" y1="46.83" x2="167.62" y2="81.01"/>
      <polygon class="cls-3" points="159.44 74.38 160.91 73.02 167.62 80.24 174.33 73.02 175.8 74.38 167.62 83.18 159.44 74.38"/>
    </g>
    <text class="cls-2" transform="translate(97.51 22.12)"><tspan x="0" y="0">B</tspan><tspan class="cls-4" x="6.5" y="0">a</tspan><tspan class="cls-5" x="12.24" y="0">t</tspan><tspan class="cls-7" x="16.21" y="0">t</tspan><tspan x="20.11" y="0">e</tspan><tspan class="cls-8" x="26.12" y="0">r</tspan><tspan x="30.35" y="0">y</tspan></text>
    <text class="cls-2" transform="translate(42.45 120.49)"><tspan x="0" y="0">LED</tspan></text>
    <text class="cls-2" transform="translate(101.71 120.49)"><tspan class="cls-9" x="0" y="0">R</tspan><tspan x="6.5" y="0">esis</tspan><tspan class="cls-7" x="24.83" y="0">t</tspan><tspan x="28.73" y="0">or</tspan></text>
  </g>
</svg>